<svg xmlns="http://www.w3.org/2000/svg" viewBox="0 0 35 35"><path d="M1 1h7v7h-7zM9 1h4v1h-1v1h-1v-1h-2zM15 1h5v1h-1v1h-2v-1h-2zM24 1h1v1h-1zM27 1h7v7h-7zM2 2v5h5v-5zM13 2h1v1h1v1h-3v-1h1zM20 2h2v1h1v-1h1v1h2v2h-1v1h-2v-1h1v-1h-2v2h-1v1h-1v1h-1v-2h-1v-2h2v1h1v-2h-1zM28 2v5h5v-5zM3 3h3v3h-3zM10 3h1v2h1v1h-1v1h-1v1h1v-1h1v1h1v-3h2v-1h2v1h-1v1h-1v1h-1v3h1v1h-1v1h-1v1h-1v-2h1v-1h-1v-1h-2v2h1v1h-1v1h-1v1h-2v-1h1v-1h-1v1h-1v-2h2v-1h-1v-1h2v-5h1zM29 3h3v3h-3zM17 6h1v2h1v2h-1v-1h-2v1h-1v-3h1v1h1zM22 6h1v1h-1zM21 7h1v1h-1zM23 7h1v2h-1v1h-1v-2h1zM25 7h1v1h-1zM1 9h1v5h1v1h-1v1h-1zM5 9h1v2h-3v-1h2zM20 9h1v1h-1zM26 9h5v1h2v1h-2v1h-1v-2h-3v1h-1zM33 9h1v1h-1zM11 10h1v1h-1zM16 10h2v1h1v1h1v1h2v1h-1v2h3v-4h-1v-1h1v-1h1v3h1v1h-1v1h3v3h-1v-1h-1v1h-1v-1h-1v1h-1v1h-1v-1h-1v-1h-2v2h-2v1h1v2h-1v-1h-1v-1h-1v-1h1v-2h1v1h1v-2h-1v-2h1v1h1v1h1v-2h-1v-1h-1v-1h-2zM19 10h1v1h-1zM21 11h1v1h-1zM4 12h1v1h1v1h-2zM15 12h1v1h1v1h-2v1h-1v-2h1zM22 12h1v1h-1zM27 13h2v2h-1v-1h-1zM30 13h1v2h-1zM32 13h1v1h-1zM9 14h2v2h-1v1h1v1h-2v-2h-4v2h-1v-1h-2v-1h1v-1h6zM22 14h1v1h-1zM13 15h1v3h-2v-1h-1v-1h2zM29 15h1v1h-1zM31 15h2v1h-2zM7 17h1v1h-1zM29 17h1v1h-1zM31 17h2v1h-1v1h-1v1h-1v-2h1zM2 18h1v1h1v1h-1v1h-1zM5 18h1v1h2v1h-3zM8 18h1v1h-1zM24 18h1v2h1v2h-1v-1h-1v1h-1v-2h1zM26 18h1v1h-1zM9 19h4v1h-2v1h-2zM19 19h1v1h-1zM21 19h1v2h-2v-1h1zM28 19h1v2h-1v1h-1v-2h1zM4 20h1v1h4v1h-2v1h1v1h-2v-1h-2v-1h-1v-1h1zM13 20h1v1h-1zM32 20h1v1h1v1h-1v2h-2v-2h1zM12 21h1v2h-1v1h-1v-2h1zM14 21h1v2h-1zM29 21h2v1h-2zM1 22h1v1h-1zM9 22h1v2h-1zM19 22h3v2h-1v-1h-2zM24 22h1v2h-2v-1h1zM26 22h1v2h2v1h1v2h1v1h-1v1h1v3h-3v1h-2v1h-5v-1h-1v-1h-1v-1h1v-1h1v2h2v1h1v-2h-2v-1h3v-3h-1v-1h-2v1h2v1h-1v1h-1v1h-1v-4h-1v-1h2v-1h1v1h3zM13 23h1v2h1v3h-1v-2h-1v1h-1v1h-3v-2h-3v-1h2v-1h1v1h1v-1h1v2h1v-2h1zM15 23h2v1h2v2h-1v-1h-2v-1h-1zM29 23h1v1h-1zM3 24h1v1h1v1h-4v-1h2zM5 24h1v1h-1zM33 24h1v1h-1zM31 25h1v2h-1zM16 26h2v1h1v1h1v2h-1v-1h-1v-1h-1v1h-2v-1h1zM26 26v3h3v-3zM1 27h7v7h-7zM27 27h1v1h-1zM2 28v5h5v-5zM33 28h1v2h-1zM3 29h3v3h-3zM9 29h2v1h4v1h-1v1h-1v-1h-2v1h2v1h-3v-3h-1zM17 30h1v2h-1zM26 30v2h1v-2zM32 30h1v1h-1zM14 32h1v1h-1zM18 32h1v2h-1zM9 33h1v1h-1zM15 33h2v1h-2zM31 33h1v1h-1zM33 33h1v1h-1z"/></svg>